<svg width="32" height="32" viewBox="0 0 32 32" fill="none" xmlns="http://www.w3.org/2000/svg">
<circle cx="16" cy="16" r="16" fill="#F9CC00"/>
<path d="M11.8334 24.3332H9.33341C8.89139 24.3332 8.46746 24.1576 8.1549 23.845C7.84234 23.5325 7.66675 23.1085 7.66675 22.6665V16.8332C7.66675 16.3911 7.84234 15.9672 8.1549 15.6547C8.46746 15.3421 8.89139 15.1665 9.33341 15.1665H11.8334M17.6667 13.4998V10.1665C17.6667 9.50346 17.4034 8.86758 16.9345 8.39874C16.4657 7.9299 15.8298 7.6665 15.1667 7.6665L11.8334 15.1665V24.3332H21.2334C21.6354 24.3377 22.0254 24.1968 22.3317 23.9365C22.6379 23.6762 22.8398 23.3139 22.9001 22.9165L24.0501 15.4165C24.0863 15.1776 24.0702 14.9337 24.0029 14.7017C23.9355 14.4697 23.8185 14.2551 23.66 14.0728C23.5014 13.8904 23.3051 13.7448 23.0847 13.6459C22.8643 13.5469 22.625 13.4971 22.3834 13.4998H17.6667Z" stroke="white" stroke-width="2" stroke-linecap="round" stroke-linejoin="round"/>
</svg>
